<?xml version="1.0" encoding="UTF-8" standalone="no"?>
<!DOCTYPE svg PUBLIC "-//W3C//DTD SVG 1.1//EN" "http://www.w3.org/Graphics/SVG/1.1/DTD/svg11.dtd">
<svg width="100%" height="100%" viewBox="0 0 25 22" version="1.1" xmlns="http://www.w3.org/2000/svg" xmlns:xlink="http://www.w3.org/1999/xlink" xml:space="preserve" xmlns:serif="http://www.serif.com/" style="fill-rule:evenodd;clip-rule:evenodd;stroke-linejoin:round;stroke-miterlimit:2;">
    <g transform="matrix(1,0,0,1,-1362.98,-633.971)">
        <g id="g14" transform="matrix(1.33333,0,0,-1.33333,164.551,1016.82)">
            <g transform="matrix(5.23387,0,0,-0.75,-6651.71,725.913)">
                <g transform="matrix(0.222158,0,0,0.222158,1122.5,471.902)">
                    <g transform="matrix(0.250574,6.39612e-33,0,1.11533,1163.27,-130.352)">
                        <path d="M1166.11,657.349C1164.45,657.349 1163.25,655.892 1162.66,655.082L1160.96,658.482C1161.43,659.211 1163.07,660.83 1165.72,660.83C1169.21,660.83 1170.92,658.077 1170.92,655.244C1170.92,649.226 1164.6,649.685 1164.6,646.636C1164.6,645.691 1165.15,644.936 1166.13,644.936C1167.58,644.936 1168.37,646.123 1168.7,646.69L1170.57,643.64C1170.11,642.831 1168.68,641.374 1166.39,641.374C1163.54,641.374 1161.54,643.829 1161.54,646.96C1161.54,652.923 1167.88,652.518 1167.88,655.514C1167.88,656.512 1167.31,657.349 1166.11,657.349Z" style="fill:rgb(59,186,154);fill-rule:nonzero;"/>
                    </g>
                    <g transform="matrix(1.06182,0,0,0.986109,-89.4564,8.39032)">
                        <path d="M1451.26,596.063C1451.26,602.437 1451.63,606.829 1452.57,606.829C1453.1,606.829 1453.41,605.426 1453.54,604.328L1453.17,601.034C1453.08,601.797 1452.91,602.834 1452.63,602.834C1452.17,602.834 1451.95,600.18 1451.95,595.758C1451.95,590.969 1452.16,588.804 1452.57,588.804C1452.89,588.804 1453.04,589.902 1453.14,590.756L1453.58,587.37C1453.49,586.73 1453.22,584.869 1452.62,584.869C1451.72,584.869 1451.26,589.322 1451.26,596.063Z" style="fill:rgb(59,186,154);fill-rule:nonzero;"/>
                    </g>
                    <g id="path130" transform="matrix(0.191063,1.2326e-32,-1.32471e-33,-1.33333,1450.45,596.144)">
                        <g id="g128">
                            <path id="path1301" serif:id="path130" d="M0,0C0,3.366 -1.09,5.168 -3.273,5.168C-4.837,5.168 -6.448,4.196 -6.448,0.166C-6.448,-3.627 -5.05,-4.86 -3.153,-4.86C-1.517,-4.86 0,-3.888 0,0M-10.432,0.071C-10.432,5.642 -7.492,8.297 -3.153,8.297C1.256,8.297 3.958,5.547 3.958,0.166C3.958,-5.286 1.09,-8.012 -3.295,-8.012C-7.753,-8.012 -10.432,-5.192 -10.432,0.071" style="fill:rgb(59,186,154);fill-rule:nonzero;"/>
                        </g>
                    </g>
                    <g transform="matrix(1.09076,0,0,1.00634,-131.195,-3.71042)">
                        <path d="M1445.52,606.524L1446.48,606.524C1447.61,606.524 1447.92,600.821 1447.92,595.361C1447.92,588.529 1447.47,585.144 1446.47,585.144L1445.52,585.144L1445.52,606.524ZM1446.18,588.987L1446.42,588.987C1446.91,588.987 1447.23,590.634 1447.23,595.788C1447.23,599.906 1447.06,602.681 1446.43,602.681L1446.18,602.681L1446.18,588.987Z" style="fill:rgb(59,186,154);fill-rule:nonzero;"/>
                    </g>
                </g>
                <g transform="matrix(0.200709,0,0,-1.40064,1279.15,1040.2)">
                    <g id="g88" transform="matrix(1,0,0,1,816.893,309.543)">
                        <path id="path90" d="M0,0L1.369,0L1.369,3.025C1.029,2.903 0.681,2.785 0.312,2.679C-0.484,2.534 -0.82,0.958 0,0" style="fill:rgb(59,186,154);fill-rule:nonzero;"/>
                    </g>
                    <g id="g92" transform="matrix(1,0,0,1,820.34,319.376)">
                        <path id="path94" d="M0,0L0.08,0.08C-2.09,-1.527 -3.939,-3.296 -4.341,-5.788C-6.302,0.032 -0.126,2.554 2.679,5.369C2.009,5.518 1.277,5.593 0.493,5.593L-5.841,5.593L-5.841,-9.833L-4.055,-9.833C-5.439,-8.696 -4.777,-4.436 0,0" style="fill:rgb(59,186,154);fill-rule:nonzero;"/>
                    </g>
                    <g id="g96" transform="matrix(1,0,0,1,825.299,323.762)">
                        <path id="path98" d="M0,0C0.608,-3.399 -0.375,-7.395 -4.386,-9.92C-0.236,-9.7 1.984,-7.821 1.984,-4.38C1.984,-2.356 1.253,-0.912 0,0" style="fill:rgb(59,186,154);fill-rule:nonzero;"/>
                    </g>
                </g>
            </g>
        </g>
    </g>
</svg>
